<svg xmlns="http://www.w3.org/2000/svg" viewBox="0 0 720 473.28"><defs><style>.cls-1{fill:none;}.cls-2{fill:#a4a9ad;}.cls-3{fill:#fff;}</style></defs><title>Asset 1</title><g id="Layer_2" data-name="Layer 2"><g id="Layer_1-2" data-name="Layer 1"><path class="cls-1" d="M426,178a41.84,41.84,0,0,1-18.57-11.92,53.71,53.71,0,0,1-5,2.27,62.94,62.94,0,0,1,7.83,7c5.11,1.46,10.28,2.65,15.29,3.64Z"></path><path class="cls-2" d="M100.69,468.22q.65-13.86,1.35-27.72-7-10.33-14.06-20.61l-2.44-3.55,4-1.5a725,725,0,0,1,78-24c-34,3.25-75.14,7.55-113.31,12.4l-21.73,3.13,4.27-30.44c-5.7-43.55-11.54-88.78-17.38-134.45-2.74-4.22-16.13-24.91-16.13-24.91L0,211.38H195a41.88,41.88,0,0,1,.27-5.63c.63-30.43,13.44-59.1,34.29-76.73l2.35-2c.62-6.05,1.6-13.1,2.92-19.42q-4.4,4.08-8.91,8l-1.23,1.07c-13,11.28-27.65,24.06-45,29.14a50.29,50.29,0,0,1-14.16,2.06c-12.15,0-22.73-4.56-29.79-12.84-10-11.73-11.8-27.53-4.78-42.28,6.29-13.22,17.81-24.32,30.82-29.68a15,15,0,0,1,5.76-1.17,12.32,12.32,0,0,1,8.87,3.54,12.17,12.17,0,0,1,3.38,8.94c-.1,8.07-6.84,12-11.77,14.84L166.7,90c-7.73,4.58-14.92,9.29-17.88,16.63-2.25,5.57-.95,11.09,3.47,14.78a19,19,0,0,0,8.71,4.17,36.08,36.08,0,0,0,11.91-2c11.14-4,21.34-11.66,31.21-19l1.5-1.13c17.25-12.9,33.21-27.9,48.65-42.4l2.3-2.17c2.78-4,12.85-16.59,15.54-18.27,2.11-1.32,24.46-11.13,49.5-11.13,1.08,0,2.18,0,3.27.06l13-3.77c4.13-1.2,8.38-2.44,12.41-3.92,1.87-.69,5.51-2.39,9.72-4.35C374.85,10.5,397.32,0,411.11,0a21.87,21.87,0,0,1,3.74.3c1.75.31,43.33,7.86,83.23,40.33A83.89,83.89,0,0,1,509,48a158.85,158.85,0,0,1,25.19-2.28c11.16,0,16.11,1.73,16.63,1.92l1.66.62.43,1.72c3.23,13-3.78,34.18-17.64,43.32.36,7.53-1.07,22.71-1.34,23.72l-.08.28-.12.26c-3.19,6.93-10.19,14.74-19.74,22.06-7.35,14.22-21.22,37.72-28.9,46.1-.64.7-1.68,1.37-5.9,3.62a24.27,24.27,0,0,0,4.7,4.63c5.65-.28,9.71-.66,9.76-.66l1-.09.89.47c6.09,3.21,9.48,12.72,10.88,17.67l46,0c11.31,0,28.87,2.84,41.15,18.17l-5-18.12H719.91L715,232.13l-3.68,15.07,0,123.83c1.37,6.16,8.69,39.22,8.69,39.22l-23.88-3.69c-31-3.68-67.86-7.61-106.87-11.41,21.2,5.76,41.77,12.34,61.52,19.69l4,1.5-2.44,3.55q-7.08,10.29-14.06,20.61.7,13.86,1.35,27.73l.23,5.06-4.75-1.76c-82.24-30.5-173.87-46.62-265-46.62s-182.72,16.12-265,46.62l-4.75,1.76ZM260.8,211.38l0,8.6c7.88-5.77,17.72-8.69,29.32-8.69a87.47,87.47,0,0,1,22.86,3.3,42.48,42.48,0,0,1,.22-7,113.77,113.77,0,0,1,6.91-36.69c-.54-3.31-.94-6.32-1.22-9.15-4.23-3.82-7.53-8.61-10.74-13.26-1.46-2.12-2.84-4.12-4.31-6A102.39,102.39,0,0,0,292,129.74a112.3,112.3,0,0,1-24.34,35.7c-6.47,6.36-13.17,12.17-23.88,13.36l-.18,0h-.2a3.46,3.46,0,0,1-1.39-.28,31.14,31.14,0,0,0-3.39,5.18l-.05.12c-1.61,4.23-1.49,7.83.33,11l.32.06c3.64.67,11.11,2,14.9,7.91a16.6,16.6,0,0,1,4.35,7.45q.15.56.26,1.14Z"></path><path d="M715.66,406.19s-6.53-29.48-7.71-34.78l0-124.61q1.89-7.7,3.78-15.45l4-16.48H593s7.14,26.11,8.43,30.85l0,8.38c-8.36-33.54-33.09-39.28-49-39.28l-40.33,0h-8.23c-1.57-7-5.13-15.58-9.84-18.06,0,0-4.65.44-11.06.72-4.2-2.78-6.45-6-8.77-9.16,4.16-2.19,7.95-4.19,8.47-4.77,7.15-7.8,21-30.92,28.73-46,9-6.82,16.2-14.46,19.33-21.26,1.25-4.68,1.46-24.46,1.24-24.74,14.1-8,20.59-29.06,17.73-40.63,0,0-11.58-4.33-41.62.78a77.23,77.23,0,0,0-11.88-8.21C460,13.88,421.73,4.91,414.27,3.61c-15.78-2.75-54,18.1-62.85,21.34-4.15,1.52-8.39,2.76-12.63,4l-13.49,3.93c-25.71-1.06-49.58,9.39-51.41,10.54s-11.66,13-14.71,17.55l-.38.38c-16.53,15.52-33,31.11-51.18,44.74-10.3,7.7-21.38,16.24-33.58,20.64a39.35,39.35,0,0,1-13.37,2.21A22.52,22.52,0,0,1,150.14,124c-5.63-4.71-7.15-11.87-4.43-18.61,3.43-8.51,11.73-13.8,19.29-18.27,5-3,11.34-6,11.42-12.75.09-7.67-7-10.79-13.38-8.17-12.48,5.15-23.31,15.91-29.07,28-6.13,12.9-5.13,27.6,4.31,38.66,9.94,11.65,26.34,13.88,40.45,9.74,17.14-5,31.73-18,44.94-29.52q9.09-7.91,17.7-16.45c-4.18,10-6.82,32.61-6.9,41.76-.95-2.27-1.88-4.54-2.79-6.82C210.3,149.65,199.1,178,198.57,206a38.81,38.81,0,0,0,0,8.75H6.17s15.49,23.94,16.54,25.55c5.85,45.77,11.75,91.39,17.53,135.65L36.53,402.4l17.36-2.5c60.25-7.65,131.37-14.33,169.6-17.4A751.61,751.61,0,0,0,90.75,418q7.41,10.76,14.7,21.57Q104.71,454,104,468.37c168.38-62.44,363.88-62.44,532.26,0q-.67-14.41-1.41-28.83,7.29-10.81,14.7-21.57a739.07,739.07,0,0,0-107.34-30.62c48.23,4.37,104.71,10,154.37,15.88ZM407.4,166.09A41.84,41.84,0,0,0,426,178l-.42,1c-5-1-10.18-2.19-15.29-3.64a62.94,62.94,0,0,0-7.83-7A53.71,53.71,0,0,0,407.4,166.09Zm-172,16.61c.06-.15.13-.29.19-.44a34.06,34.06,0,0,1,6.16-8.45c.84,1,1.47,1.67,1.67,1.64,9.86-1.09,16.14-6.75,21.9-12.41A108.65,108.65,0,0,0,290.71,124,123.57,123.57,0,0,1,306.5,140.4c5.07,6.64,9.32,14.47,15.59,19.68.33,3.72.85,7.44,1.47,11.14a109.51,109.51,0,0,0-7,36.59,36.91,36.91,0,0,0,.37,11.46,89.4,89.4,0,0,0-26.81-4.62c-12.74,0-23.15,3.71-30.95,11-.62.58-1.17,1.22-1.75,1.84l0-12.78h-1.81a11.86,11.86,0,0,0-.38-3.61,13.33,13.33,0,0,0-3.74-6.2c-3.85-6.48-14.26-6.55-14.74-7.22C233.52,193.09,233.41,188,235.41,182.7Z"></path><path class="cls-2" d="M351,208.3a5.66,5.66,0,0,0-1.17,3.1,11.25,11.25,0,0,1,5,6.48,7.72,7.72,0,0,0-4.49-2,8.29,8.29,0,0,0,.45,1.27,6.32,6.32,0,0,1,4.83,3.65,12.12,12.12,0,0,0,.32-6.78A8.36,8.36,0,0,0,351,208.3Z"></path><path class="cls-2" d="M327,208.3a5.66,5.66,0,0,0-1.17,3.1,11.25,11.25,0,0,1,5,6.48,7.72,7.72,0,0,0-4.49-2,8.29,8.29,0,0,0,.45,1.27,6.32,6.32,0,0,1,4.83,3.65,12.12,12.12,0,0,0,.32-6.78A8.36,8.36,0,0,0,327,208.3Z"></path><path class="cls-2" d="M368.88,213.35a8.2,8.2,0,0,0-4.68-5,5,5,0,0,0-.91,1.8c1.07.51,2.12,1.05,3.15,1.65C367.28,212.24,368.09,212.78,368.88,213.35Z"></path><path class="cls-2" d="M339,208.3a5.65,5.65,0,0,0-1.17,3.1,11.25,11.25,0,0,1,5,6.48,7.72,7.72,0,0,0-4.49-2,8.29,8.29,0,0,0,.45,1.27,6.32,6.32,0,0,1,4.83,3.65,12.12,12.12,0,0,0,.32-6.78A8.36,8.36,0,0,0,339,208.3Z"></path><path class="cls-3" d="M356.16,218.42a11.15,11.15,0,0,0-.23-4.38A8.36,8.36,0,0,0,351,208.3a4.81,4.81,0,0,0-.76,1.33C353.38,211.38,355.25,214.7,356.16,218.42Z"></path><path class="cls-3" d="M332.08,218.7a11.26,11.26,0,0,0-.18-4.67A8.36,8.36,0,0,0,327,208.3a4.67,4.67,0,0,0-.59,1C329.42,211.19,331.33,214.84,332.08,218.7Z"></path><path class="cls-3" d="M344.22,217.56a10.83,10.83,0,0,0-.31-3.52A8.36,8.36,0,0,0,339,208.3a4.65,4.65,0,0,0-.69,1.22A13.33,13.33,0,0,1,344.22,217.56Z"></path><path class="cls-3" d="M368.88,213.35a8.2,8.2,0,0,0-4.68-5,4.66,4.66,0,0,0-.58.93,8.9,8.9,0,0,1,2.66,2.45l.15.08C367.28,212.24,368.09,212.78,368.88,213.35Z"></path><path class="cls-2" d="M463.52,193.22a48.65,48.65,0,0,0-4.84-4.14c-5.81-.45-14-1.6-22.57-3l-.78-.13-6.49-1.09-.77-.13c-8.73-1.51-17.38-3.14-24.1-4.45l-3.52-.69-6.61-1.32c-7.89-1.61-24.1-5.08-36.19-5.35a60.77,60.77,0,0,1,16.81-2.77,110.73,110.73,0,0,1,15.62.85,47.35,47.35,0,0,0-18.93-21c3.32-16.7-2.81-34.21-13-47.87a28.66,28.66,0,0,1,11.63,9,73.65,73.65,0,0,0-21.77-26.66,57.76,57.76,0,0,1,35.9,22.91c-.34-.9-.68-1.81-1-2.72a101.55,101.55,0,0,1-4.8-30.16c-.25-12.92,1.61-26.59,9.6-36.75A132,132,0,0,0,395.4,62c-3.11-11.92,1.83-23.08,1.83-23.08s2.54-5,7.11-3.44c1.8.62,15.55,6.72,25.84,8a54.49,54.49,0,0,1,14.14-3.07,53.36,53.36,0,0,1,23.64-5.24c-25.08-15.45-49.33-22.54-58.63-22.71-13.89,2-25.07,7.55-36.17,12.59-17.87,8.11-34.81,12.28-53.73,17.47-6.81,1.87-14.77,5.24-26.49,11.07,2.16-4,5.89-7.49,9.28-10.11-10.4,2.48-22.6,7.2-23.55,8.32-12.65,14.84-21,31.25-27.4,47.79,4-5.63,8-11.16,12.15-16.67a219.69,219.69,0,0,1-12.66,48.93c7.12-8.08,11.42-18.24,14.8-28.47,2-6.18,3.8-12.47,5.81-18.66a73.12,73.12,0,0,1,2.84-8.07c.5-1.31,1-2.61,1.59-3.89l0,.24q.64-1.32,1.34-2.62a19.64,19.64,0,0,0,2.41,8.78,31.6,31.6,0,0,1,1.79-10.6,3.38,3.38,0,0,1,.89-1.54,3.57,3.57,0,0,1,1.8-.62L293,65.06c1.8,2.69,1.73,6.24,1,9.39s-2.13,6.13-2.76,9.31a21,21,0,0,0,4.91,17.66A36,36,0,0,1,298,89.2a78.29,78.29,0,0,0,8.26,23.46,36.32,36.32,0,0,1,.12-14.13,78.22,78.22,0,0,0,9.11,19.59q-.57-1.69-1.07-3.41c-2.64-9.12-.59-31.71.37-33.25.72-1.15,10.72-10.16,15.23-13.08A39.41,39.41,0,0,1,351.25,40.6,49.13,49.13,0,0,0,344.39,71,79.19,79.19,0,0,0,326,84.55a57.56,57.56,0,0,0,5.68,29.73,20.59,20.59,0,0,1,3-10.43c1.43,13.24,7.29,25.74,13.17,37.42-6.51-2.39-8.66-5.56-13.91-10.34-1.4,11.87-.37,22.59,2.46,34.2q1.91,7.84,4.11,15.59c1.25.92,2.54,1.78,3.84,2.61.38-.19.77-.34,1.16-.52a24.58,24.58,0,0,0,2.45,6.72,72.59,72.59,0,0,0,21.11,5,12.49,12.49,0,0,1-5.74,3.13,96.38,96.38,0,0,0,47.86-1.4,56.25,56.25,0,0,1-12,9.17A87.36,87.36,0,0,0,410.28,211l1.53-1.18c5.7-5.42,11.21-9.36,18.3-12.1,1.22-.7,2.43-1.43,3.67-2.1Q440,198.7,446,202.4c-2.67-4-6.29-7.53-10.85-11.54l1.18.12,1.34.13,8,.83,3.24.35,1.86.21,3.08.38,1.1.16a6.34,6.34,0,0,1,1,.2,13.87,13.87,0,0,1,1.67,1.16,39.48,39.48,0,0,1,11,4.67A49,49,0,0,0,463.52,193.22Z"></path><path class="cls-2" d="M208.94,199.42c1.54-.4,3.14-.82,5-1.28a64.12,64.12,0,0,1,14.22-37,32.35,32.35,0,0,0,6.74,5.26,64.07,64.07,0,0,1-6.83-14.94C220.18,158,208.13,174.64,208.94,199.42Z"></path><path class="cls-3" d="M333.22,82.71c-.52.61-1,1.23-1.5,1.87.48-.64,1-1.26,1.5-1.87.35-1.13.71-2.25,1.12-3.38-.41,1.13-.78,2.25-1.12,3.38,3.14-3.72,6.74-6.88,9.16-10.59A79.2,79.2,0,0,0,326,84.55a57.51,57.51,0,0,0,4.92,28A68,68,0,0,1,333.22,82.71Z"></path><path class="cls-3" d="M344.45,139.71c-4-2.18-6.24-5-10.43-8.78-1.4,11.87-.37,22.59,2.46,34.2q1.91,7.84,4.11,15.59l.9.64c-1.47-13.78-.12-27.56-1.71-41.34A32.88,32.88,0,0,1,344.45,139.71Z"></path><path class="cls-3" d="M278.64,51.82a136.34,136.34,0,0,0-9.38,12.4,96.1,96.1,0,0,1,9.55-8.69c5-1.81,10.37-2.58,15.48-4.1a38.29,38.29,0,0,1,7.91-7.92C291.8,46,279.6,50.7,278.64,51.82Z"></path><path class="cls-3" d="M409.32,12.48c-12.23,1.75-21.86,7.58-32.18,10.76,7.67-2.36,26.31-4.61,32.91-5.39,11.85,3.58,28.6,9.11,45.5,18.67a54.55,54.55,0,0,1,12.39-1.33C442.86,19.74,418.61,12.64,409.32,12.48Z"></path><path class="cls-2" d="M231.85,209.58a11.25,11.25,0,0,1,5,6.48,7.72,7.72,0,0,0-4.49-2,8.29,8.29,0,0,0,.45,1.27,6.32,6.32,0,0,1,4.83,3.65,12.12,12.12,0,0,0,.32-6.78,8.36,8.36,0,0,0-4.94-5.74A5.66,5.66,0,0,0,231.85,209.58Z"></path><path class="cls-2" d="M209,206.48a5.66,5.66,0,0,0-1.17,3.1,11.25,11.25,0,0,1,5,6.48,7.72,7.72,0,0,0-4.49-2,8.29,8.29,0,0,0,.45,1.27,6.32,6.32,0,0,1,4.83,3.65,12.12,12.12,0,0,0,.32-6.78A8.36,8.36,0,0,0,209,206.48Z"></path><path class="cls-2" d="M250.07,216.06a7.72,7.72,0,0,0-4.49-2,8.29,8.29,0,0,0,.45,1.27,6.32,6.32,0,0,1,4.83,3.65,12.12,12.12,0,0,0,.32-6.78,8.36,8.36,0,0,0-4.94-5.74,5.66,5.66,0,0,0-1.17,3.1A11.25,11.25,0,0,1,250.07,216.06Z"></path><path class="cls-2" d="M221,206.48a5.66,5.66,0,0,0-1.17,3.1,11.25,11.25,0,0,1,5,6.48,7.72,7.72,0,0,0-4.49-2,8.29,8.29,0,0,0,.45,1.27,6.32,6.32,0,0,1,4.83,3.65,12.12,12.12,0,0,0,.32-6.78A8.36,8.36,0,0,0,221,206.48Z"></path><path class="cls-3" d="M238.19,216.6a11.15,11.15,0,0,0-.23-4.38,8.36,8.36,0,0,0-4.94-5.74,4.81,4.81,0,0,0-.76,1.33C235.41,209.56,237.28,212.88,238.19,216.6Z"></path><path class="cls-3" d="M214.11,216.88a11.26,11.26,0,0,0-.18-4.67,8.36,8.36,0,0,0-4.94-5.74,4.67,4.67,0,0,0-.59,1C211.45,209.36,213.36,213,214.11,216.88Z"></path><path class="cls-3" d="M251.14,218a11.7,11.7,0,0,0,0-5.77,8.36,8.36,0,0,0-4.94-5.74,4.66,4.66,0,0,0-.58.93C249.08,209.39,250.65,213.51,251.14,218Z"></path><path class="cls-3" d="M226.25,215.73a10.83,10.83,0,0,0-.31-3.52,8.36,8.36,0,0,0-4.94-5.74,4.65,4.65,0,0,0-.69,1.22A13.33,13.33,0,0,1,226.25,215.73Z"></path><path class="cls-2" d="M425.85,168.66a11.58,11.58,0,0,1-2-4.23c2.71,1.58,5,3,9,3.55,13,1.93,24.57-4.91,26.15-27.18.42-6,3.49-19.91,3.49-19.91-7.08,9.72-11.73,27.25-12.22,28.5-3,7.72-11.32,5.91-14.31,3.79-3.53-2.5-13.91-.62-13.91-.62-5.62,2.25-8.46-1.9-10.56-5.65-.81,3.7-1.09,9.49,1,12.9A20.8,20.8,0,0,0,425.85,168.66Z"></path><path class="cls-2" d="M419.41,49.2c-8.08-2.36-14.57-9.28-17-6.83a14.88,14.88,0,0,0-1,2.62,29.63,29.63,0,0,0-.69,9c.05.75.14,1.52.24,2.3s.29,1.39.48,2.11a34.69,34.69,0,0,1,.35-6,7.18,7.18,0,0,1,1.57-4,57,57,0,0,0,7.19,6.36l.34-.21A53.4,53.4,0,0,1,419.41,49.2Z"></path><path class="cls-3" d="M402.73,42.12c4.78,2.64,7.27,7,11.6,10a54.79,54.79,0,0,1,5.08-2.91C411.67,46.94,405.41,40.53,402.73,42.12Z"></path><path class="cls-2" d="M539.86,58.19c-3.93-4.57-31.24,2-40.52.27-1.66-.3-9.65-2.67-11.85-4.5,1.76-.24,7.74-1.38,8.63-1.48a43,43,0,0,0-34.54-8c-9.1,1.92-17.3,6.78-25,12.07A30.15,30.15,0,0,1,443,48a47,47,0,0,0-4.85.82c-1.6.68-3.17,1.4-4.74,2.12-5,2.32-10.22,4.76-14.37,8.34a17.66,17.66,0,0,1,5.43,3.63,12.41,12.41,0,0,1,4.94-2.72,27.93,27.93,0,0,0-2.26,6,11.12,11.12,0,0,0,.74,7.58,21,21,0,0,0-12.35,8.56,24.73,24.73,0,0,1,6.31,3.86,24.8,24.8,0,0,1,16.48-.77,22.21,22.21,0,0,1,3.42-2.87,20.34,20.34,0,0,1,6.1,2.71A9.64,9.64,0,0,0,443.27,88c-1.29,1.26-3.87,4.36-3.93,4.3-5.19.63-11.82,1.76-12.88,3-.8,1-1.54,4.22-1.08,7.62,5-.28,10.86-.76,18-.83,6.31-.06,13.13,5.18,19.34,11a22.86,22.86,0,0,0,.67-3.59,55,55,0,0,0-6.17-5.2,19.77,19.77,0,0,1,9,1.41l-2.78-2.92a22,22,0,0,0-.75-3.87,55.06,55.06,0,0,0-7.67-2.5,20.65,20.65,0,0,1,9.56-2.1l-.07-.14-2.72-.93a22,22,0,0,0-2.45-3.09,55.05,55.05,0,0,0-8,1.32,19.53,19.53,0,0,1,6.73-5.83,47.49,47.49,0,0,0-6.31-5.22,18.22,18.22,0,0,0-3.93-2c-3.11-1.06-6.85-.89-9.33,1.26a10,10,0,0,1,2-5.4c-2-3.58-3.81-9.54.89-14.39-.4,4.32,2.57,8.21,4.87,10.64,9.45-6.9,21.74-11.66,34.42-8a12.37,12.37,0,0,1,5.08,3.55q-4.24,4.89-8.78,9.51a39.84,39.84,0,0,1,16.54.68A43.23,43.23,0,0,0,473,84.19a48.92,48.92,0,0,1,19.42,4.39,67.44,67.44,0,0,0-21.86,1.27A29.85,29.85,0,0,1,473.15,96a49,49,0,0,1,19.25,8.56,67.4,67.4,0,0,0-18.33-3.23,24.1,24.1,0,0,1-.71,7.59v0a48.32,48.32,0,0,1,11.84,7.68,67.11,67.11,0,0,0-12.94-4,19.31,19.31,0,0,1-2.74,5.39,41.66,41.66,0,0,1,.2,9.41A76.46,76.46,0,0,1,466,146a40.13,40.13,0,0,0,9.67-23.18c11.93-.35,21.77-3.7,32.68-8.55a44.66,44.66,0,0,1-3.09,18.19A68.52,68.52,0,0,0,514.15,118s2.65,1.63,3.25,2.11c1.55-32.37-15.2-48.92-15.2-48.92,9.86-5.2,21.81-7.29,33-7.54a23.32,23.32,0,0,1-3.06,12.24C541.87,68,539.89,58.5,539.86,58.19Z"></path><path class="cls-3" d="M461.59,44.46c-7.34,1.54-14.09,5-20.44,9.06,14.89-7,35.88-8.92,48.78.06,2.42-.42,5.56-1,6.19-1.09A43,43,0,0,0,461.59,44.46Z"></path><path class="cls-3" d="M438.19,48.82c-1.6.68-3.17,1.4-4.74,2.12-5,2.32-10.22,4.76-14.37,8.34a17.73,17.73,0,0,1,4.66,2.94c4.86-4.88,9.85-8.92,16.3-11A30.22,30.22,0,0,1,443,48,47.06,47.06,0,0,0,438.19,48.82Z"></path><path class="cls-3" d="M442.73,80.93a11.16,11.16,0,0,0-5.1,1.71c-5.4-1.92-11.27,0-16.49,3,.25.2.51.38.75.59a24.8,24.8,0,0,1,16.48-.77,35.09,35.09,0,0,1,3.42-2.87,23.84,23.84,0,0,1,5.4,2.22A15.48,15.48,0,0,0,442.73,80.93Z"></path><path class="cls-3" d="M430.29,74.32c-2.08-2.86-2.45-7.57-2.23-10.93a20.08,20.08,0,0,0-.86,2.81,11.12,11.12,0,0,0,.74,7.58,21,21,0,0,0-12.35,8.56,24.23,24.23,0,0,1,2.4,1.19C420.75,78.36,425.49,75.92,430.29,74.32Z"></path><path class="cls-3" d="M488.38,77.22a45.25,45.25,0,0,0-15.36,7,50.22,50.22,0,0,1,5.06.36C480.83,81.21,484.63,79.24,488.38,77.22Z"></path><path class="cls-3" d="M508.41,109.48a50.39,50.39,0,0,1-.06,6.65,45.54,45.54,0,0,1-3.13,16.32A68.52,68.52,0,0,0,514.15,118s2.65,1.63,3.25,2.11c1.55-32.37-15.2-48.92-15.2-48.92a68.7,68.7,0,0,1,24.08-6.94c-10.36-.93-21.54-.42-31,3.8,9.89,13.74,15,24.24,17.42,44.41C511.88,112,509.85,110.41,508.41,109.48Z"></path><path class="cls-2" d="M418.5,94.19a17.75,17.75,0,0,0-8.1-5,15.67,15.67,0,0,1,1.35-6.1,15.05,15.05,0,0,0-5.21,5.48,29.28,29.28,0,0,0-5,4.06c1.34-.46,2.59-.82,3.75-1.11a29.83,29.83,0,0,0,.14,3A27.54,27.54,0,0,0,401.68,98c1.42-.58,2.75-1,4-1.41.15,1.21.36,2.51.63,3.83a27,27,0,0,0-2.82,3.59c1.16-.67,2.25-1.22,3.27-1.71a23.21,23.21,0,0,0,1.33,3.82,28.14,28.14,0,0,1,5.43-4.33c.53-.11,4.71.79,5.75.93C417.95,98.52,419.38,95.42,418.5,94.19Z"></path><path class="cls-3" d="M446,110.77c-3.19-2.5-8.32-3.44-11.52-1.07a3.56,3.56,0,0,0-2.6-1.65,13.51,13.51,0,0,0-2.35,1,7.72,7.72,0,0,0-3.14-1.38,4.84,4.84,0,0,0-2.11,1.11,6.42,6.42,0,0,0-3-1.08,4.23,4.23,0,0,0-1.91,1.55A7,7,0,0,0,415,108a5.32,5.32,0,0,0-1.86,3.3c-.67,3.83,1.87,7.68,5.45,10a13.71,13.71,0,0,1,1.27-8.63l1.62,1.69a19.28,19.28,0,0,1,2.18-2.5l2,2.18a18.17,18.17,0,0,1,3.43-1.87c.56.66,1.26,1.55,1.82,2.21a23,23,0,0,1,3.16-1.48c.07,4.51,3.56,9.75,4.69,10.87,1-2.49,3.06-10.28,10.16-9.89A15.45,15.45,0,0,0,446,110.77Z"></path><path class="cls-3" d="M415.89,147.07a4.11,4.11,0,0,0,5-.26,6.65,6.65,0,0,0,1.58.46,3.24,3.24,0,0,0,2.47-.4,3.34,3.34,0,0,0,4.09-.46,4.1,4.1,0,0,0,2.62,1.14,3.53,3.53,0,0,0,3-1.2h.07c1.36,2.34,5.41,2.66,6.7,2.3a9.9,9.9,0,0,0,4-4.85,27.35,27.35,0,0,0,.76-7c-1.24,2.34-2.76,5.48-4.64,6.12-2.23-2.21-4.59-9.49-4.64-9.47-2.49,2.44-3.27,5.71-3.54,9.18-.69-.92-2.22-1.77-2.91-2.69l-1.78,2.56a22,22,0,0,0-2-2.69l-1.32,2.55-1.84-2.85-1.91,2.31c-2.8-2.59-2.46-6.55-3.41-8.37C414.08,138.06,412.84,144.7,415.89,147.07Z"></path><path class="cls-2" d="M415.89,147.07a4.11,4.11,0,0,0,5-.26,6.65,6.65,0,0,0,1.58.46,3.24,3.24,0,0,0,2.47-.4,3.34,3.34,0,0,0,4.09-.46,4.1,4.1,0,0,0,2.62,1.14,3.53,3.53,0,0,0,3-1.2h.06c1.36,2.34,5.41,2.66,6.7,2.3a9.9,9.9,0,0,0,4-4.85,27.35,27.35,0,0,0,.76-7,36,36,0,0,1-2.43,4.18c-.4,2.09-.43,3.74-2.76,3.42-2,3.41-5.81,2-7.11-.66-.08.59-1.4,2.24-2.47,2.24s-1.2.32-2.6-1.25c-1.05,1.66-3,2.53-3.84.31a2.45,2.45,0,0,1-4.26-.66c-2.13,2.52-5,2-6.49-1.23A5,5,0,0,0,415.89,147.07Z"></path><path class="cls-3" d="M471.37,68.38A18.46,18.46,0,0,0,464,69.63c1.56.36,3.11.76,4.63,1.26a7.55,7.55,0,0,1-10.84,2.18,10.22,10.22,0,0,0-2.31,2.4c2.42.8,5.76,2.3,14.26-.23C469.87,75.21,471.6,70.38,471.37,68.38Z"></path><path class="cls-3" d="M419.62,71.92a8.14,8.14,0,0,1-4.2-4.58,37.53,37.53,0,0,1,3.83.08,11.48,11.48,0,0,0-4.85-2.18c-.64,1.53.53,5.84.61,5.92a5.6,5.6,0,0,0,7.16,1l0-.08A5.5,5.5,0,0,1,419.62,71.92Z"></path><path class="cls-2" d="M432.18,136.47c2-1.13-.05-7.92,4-11.23a17.44,17.44,0,0,1-4.43-5.17c-3.29,1.74-5.5,6.26-6.4,9-1.26-2.81-.56-6.19,2.35-9.91-3.64,1-5.91,2.47-6.18,3.41-.88,3.1-1.54,9.79.74,12.31S430.42,137.47,432.18,136.47Z"></path><path class="cls-3" d="M458.68,189.08c-17.15-1.33-54.6-8.71-64.83-10.8-9.79-2-32.39-6.86-44-4.92,24.9,1.82,86.34,18.42,85.3,17.51,5.82.58,19.7,2,20.74,2.38a13.91,13.91,0,0,1,1.67,1.16,39.48,39.48,0,0,1,11.11,4.71A48.89,48.89,0,0,0,458.68,189.08Z"></path><path class="cls-3" d="M178.87,407.71l2.44,9.81c.56,2.28-2.29,4.93-6.39,6q-9.24,2.39-18.44,5l2.6,9.12q-5.95,1.7-11.87,3.49l-6.39-21.08-3.18,1q.07-3.18.16-6.37,16.15-4.92,32.46-9.14C174.46,404.43,178.31,405.43,178.87,407.71Zm-11.86,5q-7,1.87-14,3.87l1.78,6.25q6.95-2,13.93-3.84Z"></path><path class="cls-3" d="M241.58,419q-6,1-12,2.13l-2.6-3.74q-7.55,1.42-15.08,3-.46,2.22-.91,4.43-6,1.26-11.89,2.61,2.55-11.87,5.39-23.74l-3.08.66q.33-3.18.67-6.37,10.67-2.29,21.39-4.29Q232.75,406.21,241.58,419Zm-18.43-7.09q-3.5-5-7.07-10-1.43,6-2.79,12Q218.22,412.84,223.16,411.89Z"></path><path class="cls-3" d="M297.18,383.48l2.53,28q-6.11.55-12.2,1.2-7.72-6.16-15.68-12.16l1.72,13.78q-6.09.76-12.17,1.62l-3.09-21.85-3.18.46q.55-3.15,1.11-6.31,7-1,14-1.83,8,6,15.8,12.23l-1.48-13.89Q290.85,384.05,297.18,383.48Z"></path><path class="cls-3" d="M355.7,386.51q-6.34.1-12.68.3l.71,22q-6.12.2-12.24.49l-1.06-22q-6.56.32-13.12.74.79-3.1,1.6-6.2,19.33-1.21,38.69-1.47Q356.65,383.45,355.7,386.51Z"></path><path class="cls-3" d="M417.47,381.82l-1.75,28q-6.15-.38-12.31-.67l.51-11q-7.11-.33-14.23-.53l-.31,11q-6.12-.17-12.25-.24l.33-28.1q6.35.07,12.7.25l-.31,11q7.17.2,14.34.53l.51-11Q411.09,381.42,417.47,381.82Z"></path><path class="cls-3" d="M451.17,406.76q12.26,1.33,24.48,3.06-1.39,2.9-2.77,5.8-17.25-2.39-34.57-4l2.59-28q19,1.76,38,4.44-1.5,2.86-3,5.73-11.49-1.59-23-2.85l-.53,4.92q10.73,1.17,21.43,2.63-1.16,2.89-2.31,5.78-9.87-1.33-19.77-2.41Z"></path><path class="cls-3" d="M512.18,412.55l-2.22-.42-1.73,9.24q-6-1.13-12.1-2.16l3.7-21.71-3.25-.55q1.48-2.84,3-5.67,16.53,2.79,33,6.28c4.24.9,7.22,3.55,6.71,5.84L537,413.3c-.52,2.29-4.25,3.43-8.39,2.55l-3.11-.65q4.4,5.72,8.67,11.48-6.56-1.46-13.14-2.81Q516.68,418.18,512.18,412.55Zm12.92-3.6,1.32-6.41q-7.11-1.46-14.23-2.8l-1.2,6.43Q518.05,407.5,525.1,408.95Z"></path><path class="cls-3" d="M560.57,408.52c.57-2.28,4.43-3.3,8.64-2.19q14.64,3.85,29.15,8.27l-3.77,5.21q-11-3.32-22.1-6.31l-1.14,4.21q9.25,3.06,18.43,6.35c3.53,1,6.84,3.86,6.13,6.15L593.52,438c-.69,2.24-4.49,3.09-8.51,1.9q-14.35-4.26-28.81-7.94l3.46-5.35q11.25,2.9,22.43,6.14l1.23-4.23q-9.26-3.25-18.61-6.27c-.66-.18-7-2.21-6.11-5.9Z"></path><path class="cls-2" d="M433.48,210.54a12.54,12.54,0,0,0-2.27,5.93,21.92,21.92,0,0,1,7.23,13.15,11.56,11.56,0,0,0-7-4.35,18.51,18.51,0,0,0,.57,2.53c.18.29,4.68.38,7.31,7.63a28.5,28.5,0,0,0,1.37-13.19C440,217.22,437.33,212.56,433.48,210.54Z"></path><path class="cls-2" d="M471.93,208.13a12.54,12.54,0,0,0-2.27,5.93,21.92,21.92,0,0,1,7.23,13.15,11.56,11.56,0,0,0-7-4.35,18.51,18.51,0,0,0,.57,2.53c.18.29,4.68.38,7.31,7.63a28.5,28.5,0,0,0,1.37-13.19C478.4,214.82,475.78,210.16,471.93,208.13Z"></path><path class="cls-2" d="M452.71,209.34a12.54,12.54,0,0,0-2.27,5.93,21.92,21.92,0,0,1,7.23,13.15,11.56,11.56,0,0,0-7-4.35,18.51,18.51,0,0,0,.57,2.53c.18.29,4.68.38,7.31,7.63A28.5,28.5,0,0,0,459.94,221C459.18,216,456.55,211.36,452.71,209.34Z"></path><path class="cls-2" d="M488.89,212.87A21.92,21.92,0,0,1,496.12,226a11.56,11.56,0,0,0-7-4.35,18.51,18.51,0,0,0,.57,2.53c.18.29,4.68.38,7.31,7.63a28.5,28.5,0,0,0,1.37-13.19c-.77-5-3.39-9.67-7.23-11.7A12.54,12.54,0,0,0,488.89,212.87Z"></path><path class="cls-3" d="M439.72,234.22a27.93,27.93,0,0,0,1-12c-.77-5-3.39-9.67-7.23-11.7a10.31,10.31,0,0,0-1.53,2.88C437.89,217.81,440,226.22,439.72,234.22Z"></path><path class="cls-3" d="M479.07,227.88a26.05,26.05,0,0,0,.1-8c-.77-5-3.39-9.67-7.23-11.7a10.51,10.51,0,0,0-1.63,3.2A36.09,36.09,0,0,1,479.07,227.88Z"></path><path class="cls-3" d="M459.32,231.62a27.26,27.26,0,0,0,.62-10.58c-.77-5-3.39-9.67-7.23-11.7a10.18,10.18,0,0,0-1.46,2.69C456.43,216.53,459.11,224.2,459.32,231.62Z"></path><path class="cls-3" d="M498.19,227.29a26.34,26.34,0,0,0,.2-8.65c-.77-5-3.39-9.67-7.23-11.7a10.65,10.65,0,0,0-1.69,3.4C494.32,214.4,497.34,220.74,498.19,227.29Z"></path><path class="cls-2" d="M142.93,365.84l1.64,9.75q-20.2,2-40.38,4.48l1.68-10.39q-4.15-29.24-8.31-58.87Q93.34,341,89.15,371.6l1.64,10.12Q71.38,384.18,52,387l1.53-10.87Q44.5,307,35.39,235.58q-2.42-3.66-4.84-7.35l34.07-.06-1.4,10.76q4.25,37.42,8.48,74.28,6.2-37.74,12.43-74.7l-1.78-10.37,32.13,0-1.55,9.57q5.46,36.3,10.91,72,4.24-35.93,8.48-71.42L131,228.09l35.32,0-4.86,6.48Q152.16,299.4,142.93,365.84Z"></path><path class="cls-2" d="M177.5,372.5q1.89-7.67,3.78-15.3.15-57,.31-114-2-7.56-4-15.16l66.62-.05q0,16.13-.07,32.25l-11.49-4.83-25.08.34-.07,25.58q9.35-.26,18.71-.49l9.16-4.13q0,17.34-.08,34.68l-9.28-3q-9.29.34-18.57.73l-.09,33.33q14.56-.85,29.12-1.54,4.44-3,8.89-5.9,0,16.38.07,32.76Q211.45,369.58,177.5,372.5Z"></path><path class="cls-2" d="M256.92,316c9.82,14.15,20.77,20.93,32.84,20.6,10.13-.28,15.27-4.9,15.28-13.6,0-6.26-4.84-12.1-14.68-17.15-11.36-5.89-18.7-10.64-22.3-14.09-6.92-6.88-10.5-16.17-10.48-28,0-12.35,3.65-21.9,10.59-28.42C281.5,222.86,305.3,228.69,319,234q0,19.79,0,39.59c-9.14-13.13-18.55-19.7-28.53-19.64-5.13,0-7.63,2.5-7.63,7.4a7.85,7.85,0,0,0,4.15,7.13c3.32,1.54,8.45,4.1,15.38,7.51q27.85,14.87,27.84,42.43A51.06,51.06,0,0,1,319,351.05c-4.73,5.82-10,9.94-15.71,12.18-12.51,5-34.58,2.08-46.5-4Z"></path><path class="cls-2" d="M542.2,356.83q2,7.62,4.06,15.27-16.9-1.42-33.82-2.57l4-14.46-.29-112L511.8,228l40.58,0q38.44-.11,38.77,51.35c.19,19-6.55,34.62-19.55,40.48q8.29,20.25,16.58,41,5.55,8.11,11.11,16.36-20.75-2.25-41.52-4.11,2-7.36,4-14.75Q554.9,341,548.07,324c-2.08.07-4,0-6-.15Zm-.27-99.65.1,38.44,5.68.23c6.65.27,11.49-.81,14.39-3.45,7-6.15,7.68-27.51-1.06-32.47-2.64-1.71-7.21-2.53-13.86-2.65Z"></path><path class="cls-2" d="M640.45,303.07q.19,31.52.39,63.06,1.95,8.22,3.9,16.5-16.91-2.2-33.85-4.13,2-7.59,4-15.22L614.59,244q-2.16-8-4.33-15.87l30.33,0q14.19,37.78,28.34,77.41l-.06-60.78q-2.09-8.33-4.17-16.6l34.21.06q-2.08,8.52-4.15,17,0,63.86,0,127.73,1.93,8.66,3.86,17.38-14.39-2.24-28.8-4.28Q655.18,343.46,640.45,303.07Z"></path><path class="cls-2" d="M494.07,241.47l-2.75-7.57c-1.16-3.2-2.44-3.58-2.93-3.72a6.6,6.6,0,0,1-3.25-2c0,.22-.05.44-.09.66h0c-1.61,7.9-10.15,13.89-10.15,13.89l-2.77-7.63c-1.16-3.2-2.45-3.58-2.93-3.72a6.6,6.6,0,0,1-3.26-2c-1.55,8.72-10.18,14.8-10.18,14.8l-2.86-7.86c-1.16-3.2-2.45-3.58-2.93-3.72a6.66,6.66,0,0,1-3.2-1.94c-2,8.95-9,14.32-10.4,15.29l.16,105.44-3.73,14.19q34,1.07,68,3.21l-.22-33-8.86,5.1q-14.56-.69-29.13-1.22,0-16.26-.06-32.53,9.29.24,18.58.53l9.3,3.67-.08-34.64-9.14,3.71q-9.36-.19-18.71-.35,0-12.48,0-25,12.54.12,25.08.26,5.76,2.55,11.51,5.13l-.06-23.81A28.67,28.67,0,0,1,494.07,241.47Z"></path><path class="cls-2" d="M391.33,254.63q0,47.73.06,95.46l3.48,14.6q-16.81-.24-33.62-.21l4.17-14.19q0-47.85,0-95.69l-20.51,0-9.15,7q0-16.81,0-33.61H421q0,16.18-.1,32.36L412,254.7Z"></path><path class="cls-3" d="M136,238.25l-.05.46q-4.24,35.49-8.48,71.41l-3.19,27-4.11-26.92q-5.45-35.72-10.91-72l-.08-.57.95-5.86-23.44,0,1.15,6.69-.1.62q-6.22,37-12.43,74.69L71,339.87l-3-26.23q-4.23-36.87-8.48-74.29l-.05-.45.91-7-23.05,0,1.56,2.36.11.85c6,47.23,12.13,94.51,18.15,140.52l.06.5-.91,6.51c10.06-1.43,20.21-2.81,30.2-4.09l-1.12-6.9.08-.55q4.2-30.61,8.41-60.81l3.63-26.07,3.66,26.07q4.16,29.63,8.31,58.87l.08.55-1,6.12c10.51-1.24,21.16-2.42,31.68-3.51l-1.08-6.44.08-.56c5.9-42.45,12.12-86.64,18.48-131.32l.13-.93,1-1.34-23.74,0Z"></path><path class="cls-3" d="M241.71,341.81l-4,2.68-1,0c-9.71.46-19.49,1-29.08,1.54l-3.91.23.11-40.76,3.52-.15q9.3-.39,18.59-.73l.66,0,5.09,1.67.06-23.89-4.86,2.09h-.51q-9.35.23-18.7.49l-3.79.1.09-33,3.62-.05,25.08-.34h.77l7.1,3,.05-23-58.16,0,2.89,11.16-.35,114.91-2.62,10.61c19.74-1.65,39.72-3,59.45-4.16Z"></path><path class="cls-3" d="M316.16,348.76a47.18,47.18,0,0,0,10.33-30.31c0-17.05-8.43-29.85-25.81-39.14L296,277c-4.55-2.25-8.07-4-10.57-5.14l-.27-.13c-4-2.51-6-6-6-10.34,0-7,4.19-11,11.45-11.08,8.74,0,16.85,4.18,24.72,12.77l0-26.48c-6.5-2.35-15.92-5-25.2-5-8.33,0-14.86,2.17-19.43,6.45-6.23,5.85-9.4,14.51-9.43,25.74,0,10.61,3.13,19.13,9.36,25.33,2.44,2.34,8.16,6.58,21.43,13.46,11.08,5.68,16.69,12.56,16.68,20.43,0,10.65-6.89,16.95-18.87,17.28q-16,.4-29.28-13.83l-.06,30.43c7.34,3.24,17.56,5.23,26.88,5.23A40.32,40.32,0,0,0,302,359.82C307.05,357.81,311.82,354.1,316.16,348.76Z"></path><path class="cls-3" d="M584.76,362.22c-5.42-13.56-11-27.34-16.57-41L566.84,318l3.24-1.46c11.06-5,17.56-18.85,17.38-37.09-.21-32.09-11.69-47.69-35.09-47.69l-35.69,0,3.12,11.05.29,112.82-2.92,10.6c8,.56,16.16,1.18,24.18,1.84l-2.84-10.83-.09-33.3.09-3.9,3.86.21c1.86.1,3.65.2,5.57.14l2.57-.08,1,2.39q6.84,17,13.67,34.36l.45,1.13-3.15,11.69c9.74.89,19.6,1.86,29.35,2.88q-3.33-4.92-6.66-9.78Zm-20.19-67.09c-3.27,3-8.15,4.44-14.92,4.44q-1,0-2.08,0l-9.2-.36-.11-42,.17-3.73,8.84.16c7.58.13,12.56,1.14,15.67,3.17,4.43,2.51,7.31,8,8.07,15.53S570.08,290.32,564.57,295.13Z"></path><path class="cls-3" d="M691.07,244.77l3.15-12.86-24.79,0,3.13,12.6.09,82.45-7.17-20.13c-8.81-24.73-18-49.94-27.42-75l-23,0c1.23,4.5,3.15,11.54,3.15,11.54l0,.3.27,120.11-3,11.58c8.09.94,16.29,1.94,24.41,3l-2.77-11.86-.52-84.59,7.27,20c9.79,26.89,19.44,54.1,28.68,80.9,7.09,1,14.22,2.07,21.29,3.15l-2.78-12.64Z"></path><path class="cls-3" d="M437.51,362c19.76.67,39.79,1.61,59.57,2.82l-.15-22.76-4.32,2.49-1.08-.05c-9.78-.46-19.57-.87-29.09-1.22l-3.54-.13-.08-39.86,3.78.1q9.3.24,18.6.53l.82.09,4.66,1.84-.05-23.75-4.79,1.94-.76,0q-9.35-.19-18.7-.35l-3.61-.06-.06-32.3,3.72,0q12.55.12,25.09.26l1,.11,6.8,3,0-14.28c-.73.64-1.2,1-1.2,1l-2.75-7.57a10,10,0,0,0-1.09-2.22h-6.09c-2.7,6.46-9.27,11.06-9.27,11.06l-2.77-7.63c-.81-2.22-1.66-3.07-2.28-3.44h-4.51c-2.46,7.47-9.58,12.51-9.58,12.51l-2.86-7.86c-1.16-3.2-2.45-3.58-2.93-3.72a7.46,7.46,0,0,1-2-.93h-1.47a26.5,26.5,0,0,1-6.45,11l.17,109.17Z"></path><path class="cls-3" d="M339.44,254.14l4.22-3.21,25.44,0,0,100.06-2.88,9.82c8,0,16,.06,24,.15l-2.49-10.56-.06-99.45h3.69L412,251h1.06l4.14,2.62.07-22H339.45Z"></path></g></g></svg>